<?xml version="1.0" standalone="no"?>
<!DOCTYPE svg PUBLIC "-//W3C//DTD SVG 20010904//EN"
 "http://www.w3.org/TR/2001/REC-SVG-20010904/DTD/svg10.dtd">
<svg version="1.0" xmlns="http://www.w3.org/2000/svg"
 width="800.000000pt" height="800.000000pt" viewBox="0 0 800.000000 800.000000"
 preserveAspectRatio="xMidYMid meet">
<metadata>
Created by potrace 1.11, written by Peter Selinger 2001-2013
</metadata>
<g transform="translate(0.000000,800.000000) scale(0.100000,-0.100000)"
fill="#000000" stroke="none">
<path d="M3778 7645 c-1 -2 -41 -6 -88 -10 -124 -9 -162 -13 -190 -19 -13 -3
-42 -8 -65 -11 -77 -11 -143 -24 -256 -50 -113 -25 -357 -98 -426 -127 -16 -6
-30 -12 -33 -12 -26 -6 -206 -81 -208 -88 -2 -4 -9 -8 -16 -8 -12 0 -218 -99
-226 -109 -3 -3 -27 -17 -55 -31 -54 -27 -207 -120 -215 -131 -3 -3 -16 -12
-30 -19 -14 -7 -59 -38 -100 -69 -41 -31 -82 -60 -91 -66 -9 -5 -40 -30 -70
-55 -29 -25 -73 -62 -98 -84 -107 -89 -304 -289 -396 -401 -22 -26 -45 -53
-50 -59 -43 -46 -225 -302 -225 -316 0 -6 -3 -10 -8 -10 -4 0 -12 -9 -17 -19
-6 -11 -40 -71 -76 -133 -133 -227 -269 -538 -325 -743 -2 -5 -15 -50 -29
-100 -14 -49 -28 -101 -31 -115 -3 -14 -7 -33 -10 -42 -3 -9 -7 -27 -9 -40 -3
-13 -11 -57 -19 -98 -8 -41 -18 -95 -22 -120 -3 -25 -8 -54 -9 -65 -5 -28 -13
-97 -22 -180 -10 -96 -9 -528 1 -645 11 -123 12 -128 20 -175 4 -22 9 -53 11
-70 6 -41 16 -94 50 -268 2 -9 6 -21 9 -25 3 -5 8 -24 11 -43 3 -19 9 -45 14
-59 9 -25 34 -111 36 -120 0 -3 3 -9 6 -15 4 -5 10 -26 14 -45 4 -19 10 -39
14 -45 3 -5 6 -12 6 -15 2 -13 29 -87 38 -105 6 -11 12 -26 13 -33 1 -7 12
-33 23 -58 12 -24 21 -46 21 -49 0 -3 21 -49 47 -103 26 -53 48 -99 48 -102 0
-3 5 -12 10 -20 5 -8 19 -33 31 -55 35 -66 48 -89 63 -107 8 -10 11 -18 8 -18
-15 0 216 -333 314 -454 128 -158 409 -441 500 -504 13 -9 30 -23 38 -30 24
-23 201 -154 266 -196 33 -22 79 -52 103 -68 24 -15 45 -28 47 -28 2 0 36 -19
77 -43 129 -76 451 -227 483 -227 8 0 15 -5 15 -11 0 -5 5 -7 10 -4 6 4 16 2
23 -4 24 -20 351 -119 452 -137 17 -3 48 -10 70 -16 22 -6 49 -11 60 -13 20
-3 66 -11 115 -20 54 -10 112 -17 270 -32 103 -9 495 -10 605 -1 141 12 307
36 435 63 14 3 35 7 48 10 60 11 267 67 333 90 41 14 81 28 89 29 79 19 462
192 585 265 28 16 69 40 93 52 23 12 42 27 42 32 0 6 3 8 6 5 6 -7 119 69 259
172 260 192 516 446 708 700 23 30 45 57 48 60 9 7 184 272 192 290 4 8 20 38
37 65 17 28 40 71 52 97 12 27 25 48 30 48 4 0 8 5 8 11 0 6 20 53 45 105 25
51 45 95 45 98 0 3 11 30 25 60 14 30 25 61 25 68 0 8 4 18 9 24 21 22 144
439 166 559 2 17 7 41 10 55 3 14 8 41 11 60 3 19 7 46 9 60 33 202 39 291 39
565 -1 222 -6 363 -18 425 -3 14 -7 43 -10 65 -6 48 -15 111 -22 145 -3 14 -8
41 -11 60 -2 19 -12 62 -20 95 -8 33 -16 70 -18 81 -4 29 -83 294 -95 319 -5
11 -12 31 -15 45 -4 14 -13 39 -20 55 -7 17 -32 77 -55 135 -46 110 -183 384
-206 411 -8 8 -14 20 -14 25 -1 9 -89 148 -110 172 -6 6 -8 12 -5 12 2 0 -2 8
-9 18 -8 9 -55 71 -105 137 -98 131 -135 176 -226 273 -123 132 -242 246 -330
317 -28 22 -52 43 -55 46 -3 4 -44 36 -91 72 -352 268 -775 481 -1197 602 -67
19 -133 37 -145 39 -12 2 -40 9 -62 14 -22 6 -56 14 -75 17 -19 3 -42 8 -50
10 -8 2 -31 6 -50 9 -19 3 -46 8 -60 10 -43 8 -183 25 -225 27 -22 2 -44 5
-50 8 -11 6 -521 12 -527 6z"/>
</g>
</svg>
