<svg xmlns="http://www.w3.org/2000/svg" viewBox="0 0 1920 1080"><defs><pattern id="grid" x="-20" y="-20" width="40" height="40" patternUnits="userSpaceOnUse"><rect width="100%" height="100%" fill="#33c" stroke="#66f" stroke-width="4"/></pattern></defs><rect width="100%" height="100%" fill="url(#grid)"/><path fill="#fff4" d="M1513.8,445.4 1519,495 1520.5,500.3 1532.2,532.5 1574.2,563.3 1583.3,572.2 1589.5,594.1 1597.5,615.6 1604.7,668.4 1588.2,708.8 1586.4,715.2 1591,718.6 1612.2,720.1 1618.4,715.8 1617.2,694.8 1620.5,649.2 1621,629.3 1613.4,577.3 1615.5,573.2 1623.4,582.8 1628.4,629.6 1630.3,649.4 1624.3,717.3 1651.9,719.6 1653.8,714.8 1650,693.9 1650.6,652.7 1652.2,629.8 1652.9,584.6 1657.8,578.7 1702.6,558.5 1709.3,568 1734.7,615.4 1737.2,649.2 1718.3,703.7 1743.3,710 1743.4,699.8 1749.8,676.3 1756.7,603.4 1755.8,587.2 1763.3,532.4 1760.6,508.3 1729.4,474.9 1701.4,446.3 1693.9,437 1653.6,437 1638.1,447.2 1581.6,488.8 1573.6,495.9 1565.2,487.6 1561.2,432.2 1562.4,426.1 1555.1,420.7 1545.1,418.7 1524.6,416.9 1511.4,419.3 1506.5,423 1509.2,434.8zM1619.3,897.7 1626.7,912.3 1646.4,907.3 1652.3,919.8 1660.9,955.1 1661.2,973.3 1671.5,1003.7 1677.8,1061.2 1673.2,1079.6 1662.9,1099 1683.7,1096.2 1686.4,1086.6 1689.4,1058.6 1693.4,1034.7 1695.7,1015.7 1709.4,1019.3 1705.1,1045 1706.6,1070.5 1706.2,1073.2 1696,1096.4 1693.3,1104.9 1700.4,1105.5 1713.1,1099.4 1718.7,1091.2 1721.1,1057 1721.9,1052.5 1728.7,1021.9 1738.5,1015 1764.4,1016.6 1777.2,1026.2 1778.6,1030.5 1795.3,1006.6 1805.2,1008.8 1816,1036.3 1799.5,1090.6 1789.6,1096.7 1822.3,1095.1 1824.7,1078 1836.8,1044.2 1837.2,1026.6 1829.7,999.3 1833.2,998 1847.6,1019.2 1851.8,1030.2 1863.8,1074.2 1856.2,1105.8 1870.7,1104.2 1877,1086.8 1873,1028.1 1869.8,1018.2 1860.4,967.1 1887,967.2 1883.6,941.3 1848,906.6 1783.4,888.1 1760.2,894.1 1739.2,895.5 1749.5,858.4 1726.1,848.6 1737,855.6 1741.5,875.6 1723.5,878.8 1708.8,868 1694.6,853.5 1672.7,847.7 1668.2,847.9 1644.6,857.4 1630,876.5 1616.5,881 1609.4,870.5 1616.2,859.7 1601.4,866.1zM357.1,987.9 367.3,990.1 380.6,1011.8 378.9,1105.5 389.8,1124.1 407.9,1126.2 431.4,1114.6 439.9,1111 452.3,1108.9 448.4,1095.7 440.7,1064.7 444.3,977.9 451.1,919.1 512,875.3 527.4,869.2 555.6,856.4 540.3,832.8 633.7,822.6 586.3,811.6 584.6,807.9 591,798.8 611.6,761.5 597.6,716.5 568.9,700 552.9,690.2 558.1,684 561.7,672 546.7,672.4 540,696 567.6,729.4 567.1,764.4 538.2,768.1 464.8,762 455.4,765.5 428.9,783.5 404.3,808.9 399.1,816.7 357.4,827.9 289.7,835.3 248.5,850.7 200,930.7 185.8,1022.2 189.7,1049.9 196.1,1082.8 193.2,1104.3 202.3,1117.2 224.7,1118.1 244.9,1105 275.4,1095.4 267.8,1082.8 270.7,1020.6 328.5,991.9zM824.8,374.2 814.9,368.7 862.4,353.7 865.6,338.6 845.8,340.3 825.6,347.5 791.6,349.5 747.5,348.7 734.4,348.3 671.3,319.6 648.2,315.2 578.5,309.9 538,305.7 477,313.1 425.4,335.6 415.2,357.4 423.9,388.3 436.5,405.1 438.1,401.1 451.2,365.6 568.4,363.8 574.3,374.8 593.8,405.9 614.7,391.4 675.8,409.2 684.4,416.8 695.2,428.4 721.7,437.9 723.5,437.8 737.7,437.2 738.7,440.3 748,429.3 735.6,420.9 748.4,418.8 792,407.9 807.7,404.6 865.5,398.6 874.3,390.8 864.8,385.3zM2024.8,370.1 2022.5,364 2021.4,367.1 2007.1,369.6 1994,354.7 1995,334.4 1995.8,305.9 1980.6,280.6 1919.6,265.8 1830.7,277.9 1804.7,275.2 1787.5,273.3 1714.1,274.7 1714.8,285.7 1707.9,311.1 1697.3,317.9 1692.8,318.3 1698.9,324 1693.1,336 1710.3,335.2 1732.8,348.9 1735,339.4 1756.6,330.2 1763.9,334.9 1773.3,362 1771.9,402.6 1762,413.5 1752,417.9 1750.1,423.3 1755.3,425.5 1769,425.6 1781.8,418.3 1792.5,391.2 1802.6,367.6 1810.9,361.7 1827.9,377.5 1848.4,408.2 1844.6,409.3 1846.3,422.5 1861.5,419.7 1861.4,402.9 1853.9,381.7 1853.9,364.1 1860.9,356 1903.5,347.6 1927.4,376.7 1923.1,401.6 1916.5,404.7 1911.8,413.2 1914.6,417.2 1933.1,411.7 1952.4,388.3 1953,373.9 1944.5,356 1946.9,354.9 1978.1,391 1976.1,404.7 1971.2,414.6 1987.2,419.3 1993.8,411.8 1995.1,394.4 1991.8,377.9 1989.2,360.2 2016.8,376.9zM-0.8,598.5 -12.7,585.4 -13.5,580.5 -2,545.7 5.9,540.4 20.4,561.5 37.4,591 49.7,591.7 76,579.3 52.2,573.1 47.1,540 94,530 89.5,548.3 88.8,576.1 120.6,584.2 115,572.5 144.2,598.7 162.8,599.8 166.8,590 153.5,543.2 149,523.6 150.9,491.9 156.1,478.9 165,440.5 153.8,408.1 148.6,401.8 118.7,402.8 71.8,446.4 20.6,472.5 -26.4,504.6 -27.9,508 -34.1,540.4 -35,548.2 -46,582.5 -29.7,603.3zM214.6,256.5 226.3,271.9 215.1,302.3 202.9,308 226,311.5 239.9,307.8 250.7,290.7 252.7,274.3 257,242.8 296.9,290.8 300.3,289.5 295.2,263.9 285.5,232.3 281.4,199.3 224,158 151.3,152.3 144.6,149.7 114.9,124.1 117.7,121.8 111.5,111.9 107.2,106 86.1,90.4 65.7,80.9 57.2,73.2 46.5,92.4 48.3,98 59.8,127 66.7,164.1 91.8,212.9 106.3,226.8 113.9,235.5 122.7,266.5 111.8,307.9 110.2,312.6 115.4,314.8 143.1,304.8 146.3,299.7 147.9,277.6 148,238.5 200.9,231zM851.7,133 868.8,125.6 923.5,121.6 943,100.2 942.8,61.4 941.4,51.7 934.6,64.4 913.7,68.8 888.6,66.1 874.3,55.9 871.9,39.5 849.5,40.1 823,45.1 745.6,32.9 742.9,33 633.1,27.8 623.5,28.7 550.3,96.1 543,148 548.9,148.7 555.3,92.2 569.5,214.4 571.3,228 576.2,237.1 621.3,238.8 607.2,220.3 596.2,175.3 604.7,163.8 614.8,175.6 629.7,202.2 642.7,219.9 693.4,233 666.1,199 658.1,160.7 730,171.6 721.9,221.3 726.2,237.1 765.7,235.6 776,177.1 783.7,218.6 808.1,245.1 823.2,244.5 828.9,232.7 816,176 829.9,151.6zM1184.6,219 1223.3,278.6 1285.2,307.9 1308.1,320.4 1333.8,344.5 1382.9,356.3 1437.6,399.9 1442.2,415.3 1463.8,449.8 1485.9,523.8 1479.7,531.2 1471.7,523.8 1471.8,513.4 1430.4,437.8 1445.3,479.6 1460,543.6 1459.8,579.9 1432.7,594.1 1413.2,499.7 1409.2,548.4 1395,598.5 1393.9,599 1381.8,599.5 1373.1,584.9 1378.1,575.4 1374.8,474 1361.1,463.4 1299.2,454.3 1311.4,596.6 1283.1,596.6 1268.7,461.7 1241.2,498.8 1260,556.5 1263.1,573.6 1254.8,582.1 1241.3,573.7 1222.8,530.7 1231.4,461.3 1242.3,442.9 1238.2,378.4 1206.4,340.4 1166.6,269.9 1152.4,233.9 1133.6,226.8 1106,231 1093,225.5 1097.7,211.4 1105.9,204.6 1152.9,163.1 1161.5,158.7 1168.5,167.1 1180.6,177.3 1188.5,179.9 1186.5,189.3zM812.7,692.3 847.8,682.8 893.7,694.1 900.1,693.7 910.4,702.1 915.6,742 923.4,750.1 950.2,750 960,744 949,728.4 955.3,692 960.7,685.3 972.8,664.6 984.3,643.1 995.6,633.1 994.6,632.2 1016.2,624.8 1011.5,621.7 1009.5,605.6 1012.2,587.8 1002.7,583.2 979.1,577.8 959.8,569.8 909.8,586.3 882.7,599.5 886.1,608.7 869,623.8 838.3,619.6 810.8,616.1 768.4,654.5 763.8,686.6 735.2,711.8 729.2,714.9 729,719.7 732.8,721.1 767.4,694.3 774.9,662.9 776.8,653.7 779.7,653.8 781.7,684.4 779.2,704.1 779.2,738.9 809.5,742.2 797,720.5 801.9,710.6zM1433.9,929.8 1425.5,911.1 1340.3,890 1249.8,915.5 1219,919.3 1211.6,928.1 1197.6,942 1187.1,962.4 1212.9,968.2 1208.5,979.9 1213.8,990.8 1235.6,987.9 1250,980.5 1272.2,1010.2 1252.5,1040.8 1262.7,1043.2 1284.5,1029.1 1292.3,1012.3 1286.3,1033.1 1308.5,1018.8 1305.3,994.8 1364.9,997.7 1345,1023.2 1372.9,1018.3 1386.2,1002.9 1392.3,990 1399.4,978.1 1412.9,985.2 1412.4,1021.7 1435.6,1005.1 1434.5,963zM820.8,994.7 803.7,969.5 841.8,959.2 849.6,990.1 828.6,1000.1 829.7,1005.8 858.8,1006.4 881.8,987.4 891.3,962 926.8,999.3 917.6,1006.5 919.1,1011.1 946,1008.3 962.7,968.5 953.2,928.7 952.6,913.4 878.6,843 825.9,845.2 779.8,840.8 751.2,838.8 689.4,863.9 661.2,864.5 660.2,885 656.3,905.1 652.4,926.8 650.9,941.6 670.5,942.3 714,929.9 735.4,944.9 732.5,987.4 718.4,999.2 701.4,1007.3 703,1011.5 733.9,1011 776.2,975.9 817.1,998.4zM511.6,15.5 513.8,41.6 517.1,42.3 521.7,31.6 518.5,-10.4 464,-49.9 457.6,-48.8 381.5,-40.9 353.4,-46.1 310,-71.6 305,-73.5 276.3,-88.5 270.8,-91.7 273.1,-82.3 268.9,-50.9 251,-22.2 250.5,-4.7 269.9,0 288.5,-13.7 305.7,-12.8 330.3,9.5 361.6,67.9 362,70.6 346.6,116.4 362,121.5 370.1,110.2 372.1,107.3 375.5,96.8 373.4,48.1 388.1,34.4 398.3,35.4 443.5,28.5 469.6,36.6 485.3,68 480.8,108.1 470.6,123.8 488.1,118.7 491.1,113.4 495.6,103 501.9,66.9 499.1,120.5 515.2,113.1 517.2,109.2 520.2,97.4 518.9,60.5 516.4,51 503.9,21.7 511.5,-9.4zM1039.7,1143.6 1096.1,1143.1 1169,1138.9 1191.9,1125.5 1212.2,1094 1213.7,1091.1 1206.9,1089.9 1213.1,1079.3 1171.6,1092.2 1206.9,1061.5 1167.4,1063.3 1168.6,1048.5 1164.2,1037.7 1160.7,1031.5 1151.1,1020.8 1135,1021.9 1099.3,1026.6 1089.1,1023.3 1079.4,1029.4 1063.9,1038 1055.3,1044.1 1053.5,1021 1044.6,981.6 1017.9,968.9 1007,997.2 1009.7,1016.6 1013,1026.3 1020.2,1018.2 1023.6,1000.6 1026,1000.5 1028.9,1014.4 1011.5,1096.1zM1860.8,639.5 1854.9,630.9 1839.9,637.1 1811.4,655.8 1806.6,665.1 1813.6,671.6 1834.2,674.4 1841,678.4 1842,717.8 1831.7,741.2 1803.9,741.8 1773.1,759.4 1768.4,767 1772.7,770.8 1780.3,765.4 1818.6,753.2 1781,795.6 1783.2,799.1 1794.9,796.1 1805.7,779.9 1818.3,768.7 1872.7,773.5 1931.4,792 1946.2,805.5 1955.4,819.6 1971.9,827 1982.1,839.1 1977.4,867.8 1974.1,875.4 1996.5,869.4 2005.3,835.6 1996,819.5 1988.1,806.7 1996.2,789.8 2007.6,805.2 2009.1,804.4 2003,785.6 2008.9,787 2008.9,779.2 2018.4,794.9 2056.2,841.2 2084.9,852.5 2078.5,839.3 2066.6,834.2 2083.7,832.8 2064.5,825.9 2065.5,823.2 2075.5,824 2058,811.7 2041.5,795.2 2027.7,768.8 1994.9,757.9 1987.4,757.7 1943.8,737.9 1912.2,728.1 1913.2,725 1925.8,728.1 1915.1,717.9 1921.1,716.7 1912.9,708.6 1924,710.9 1922.2,687.2 1914.4,683.4 1921.2,679 1900.5,674.1 1906,668.2 1880.8,650.7 1889.5,649.2 1879.8,645 1888.6,641 1875.2,637.3 1875.9,634.4zM493.2,629.8 508.1,619 498.2,564.7 491.5,555.1 485.1,502.6 482.6,484.3 432.1,468.1 361.1,465.6 331.7,465.1 313.2,461.6 316.6,413.3 326.6,402.9 386.4,367.2 386.4,350.9 380.8,358 362.2,363.5 361.6,347 366.6,329.3 362.4,328 351.7,363 333.4,380.7 320,361 333.3,360 333.3,350.7 320.1,353.9 307,355.1 303.3,342.5 306.8,326.4 302.5,325.5 296.8,349.3 280.3,370.5 268.5,357.1 265.9,355 274.7,405.2 264.6,397.4 264.1,408.6 247.9,403.7 246.5,407 260.9,414.4 267.4,418.3 264,426.5 239.3,447.5 234.9,455.7 243.7,464.4 252,464.2 265.8,474.2 278.9,503.4 325.1,544 333.7,557.8 333.3,616 323.5,640 319.4,647 353.2,616.6 353.1,564.4 369.8,550.5 430.1,545.2 427.9,640.6 439.8,638.4 464.9,554.2zM1478.3,733.9 1459,736.3 1453,740.1 1417,740 1363.6,722.1 1346.2,691.8 1356.3,658.7 1394.9,682.6 1391.1,657.5 1348.1,646.7 1327.9,682.3 1351,730.9 1353.5,739.3 1344.3,773.9 1342.4,787.7 1313.4,810 1305.1,824.3 1308.3,846.8 1330.1,846.8 1323.8,839.9 1316.1,829.6 1324.6,820.9 1365.7,791.4 1369.1,802.4 1359.6,834 1360.2,844.5 1397.7,843.6 1374.2,840.8 1387.7,813.5 1386.1,783.2 1383,776.3 1399.3,785.5 1416.7,792 1409.8,843.9 1411,852.1 1426.1,854.7 1421,841.5 1429.9,813.3 1446.3,795.6 1455.1,835.3 1480.4,848.8 1477.3,846.7 1465.3,835.3 1468.9,779 1484.8,768.3 1493.2,758.9 1492.2,742.2zM100.9,745.6 125.8,750.1 141.4,750.5 137.5,737.7 123.7,744.4 114.4,733.2 109.7,729.3 97.8,722.2 42.3,745.5 55,788.6 72.4,815.8 70.7,828.1 59.5,828.2 31.4,805.8 6.4,799.4 -3.2,822.2 -19.2,845.5 -24.9,834.8 -13.5,789.3 -32.2,808.1 -29.8,857.3 9.9,872.5 24.4,872.9 55,879.6 126.6,864.9 126.9,838.5 122.6,829.9 104,814.1 102.8,814.2 75.3,774.7 67.4,760.2 80.8,745.5zM1393.6,57 1409.8,55.6 1417.4,50.9 1420.6,54.8 1413.4,58.6 1402.9,73.1 1406.7,89.8 1418.4,87.3 1436.5,69.7 1446.3,64 1449.8,73.4 1458.5,88.2 1517.7,96.4 1527.8,90.3 1530.3,83.1 1524.3,80.1 1501.6,76.1 1465.6,63.8 1504.3,39.3 1518.4,-2.4 1522.9,-3.5 1534,-8.4 1528,-19.1 1495.8,-40.5 1485.9,-41.3 1480.7,-40.9 1458.6,-35.5 1467.7,-31.3 1422.5,-11.9 1409.8,37.1 1375.2,13.3 1366.8,7.6 1362.3,17.2 1364.5,29.5zM1783.8,165.2 1793.4,135 1796.8,104.4 1800.9,87.3 1800.6,70 1798,59 1786.9,63.2 1760,83.6 1740.3,86.3 1730,71.9 1735.4,48.8 1713.4,31.2 1709,43.5 1698.6,71.6 1689,95.5 1690.3,138.5 1720.9,176.2 1722.1,185.3 1696,202.1 1729.6,202.1 1729.3,185.8 1757.6,179.8 1736.5,203.2 1738.6,206 1765.2,206 1761.9,195.4 1776.1,170.2zM1515.8,181.3 1529.5,186.8 1531.2,184.2 1526.1,177.6 1515.3,159.7 1497.9,143 1470.5,155.4 1467.5,186.5 1472.2,201.5 1407.2,225.4 1366.8,233.6 1371.5,243 1392.9,260.2 1413.1,274.9 1440.1,280.8 1451.3,290.1 1470.1,305.6 1491.3,303.7 1488.1,299.4 1497.9,292.5 1484,288.9 1467.8,273.9 1496.4,261.1 1513.3,206.4 1495.8,183.9 1492.8,174.9 1502.1,173.8zM619.9,547.7 612.6,565.9 593,608.1 596.3,616 604,611.7 607.3,596.4 619.3,582.7 638.5,571.2 647.8,569.6 667,597.6 671.2,608.8 697.8,618.5 714,623.2 735.5,623.1 704.8,592.4 722.7,595.8 741.6,617.4 761.8,626 770,622.7 762.3,618 735.4,582.3 738.4,546 740.3,538 742.6,509.9 736.3,498.4 729.3,510.7 713,510.3 707.3,501.8 705.1,502.6 703.3,527.1 699.9,526.6 628.9,532.1 621.6,535.4 590.7,532 577.2,494.6 578.8,487.8 569.3,495.8 585.5,541zM1043.9,328.9 1019.1,314.7 1021.6,303.2 1034.4,298.8 1020.1,288.9 991.1,293.1 980.1,315.4 957.3,340.7 936.5,352.8 918.2,368.2 917.9,382.9 969.6,352 974.6,425.8 973,439.3 973.7,449.7 976.3,449.8 981.8,443.5 1001.2,457 988.5,443 1010.5,437.7 1020.6,447.9 1025.8,443.2 1041.2,443.8 1035.6,437.9 1027.9,434.8 1024.5,425.6 1033.5,353.1 1031.3,343.2 1059.1,360.2zM1225.8,640.2 1209.4,647.8 1212.5,666 1220.2,685 1203.1,700.5 1187.6,697.9 1120.8,704.6 1056.9,750.1 1029.5,783.7 1031.7,786.5 1052.7,775.7 1072.7,757.1 1132.9,745.9 1138.6,748.2 1142.3,772.4 1138.1,817.5 1138.2,849.8 1144.4,860.4 1159,857.3 1149.9,853.3 1143.3,848.4 1143,794.9 1220.1,844.1 1201.3,824.1 1166,803.8 1155.3,779.7 1164.6,759.9 1177,747.6 1179.6,757 1191.6,757.5 1199.1,750.9 1224.5,711.3 1228.7,677.8 1226.6,670.7 1227.3,660.3 1237.5,662.5 1250.6,672.5 1251.5,671.4 1240.3,651.9zM965.9,59.8 1036,76.4 1044.1,82.1 1035.3,88.4 999.8,97.2 1017.2,100 1072,93.1 1108.3,93 1129.7,111.4 1177.7,106.4 1178.2,104 1165.9,101.8 1157,93.4 1157.9,81.5 1161.6,74.6 1157.4,70.5 1159,42.5 1173.1,23 1178.5,7.3 1172.6,1.6 1130,6.2 1133.7,12.1 1123.4,12.1 1105.5,34.6 1081.7,49.5 1049,59.7 1003.5,53.3 975.7,50.2 975.6,47.3 1053.1,34.9 1044.7,33.7 967.7,42.9 957.2,46.2 953,52.3 957.9,58 "/></svg>
