<svg xmlns="http://www.w3.org/2000/svg" xmlns:xlink="http://www.w3.org/1999/xlink" width="300" height="300"><defs><g id="d" fill="#fff"><path d="M5.48 31.32a18.34 18.34 0 1 1 31.3-12.96H26.04a7.6 7.6 0 1 0-12.97 5.36c1.38 1.38 2.53 1.78 5.37 2.23 5.07.53 9.65 2.06 12.97 5.37A18.34 18.34 0 1 1 .1 44.28h10.74a7.6 7.6 0 1 0 12.97-5.36c-1.38-1.37-3.35-1.85-5.38-2.22-4.9-.76-9.64-2.06-12.96-5.38zM73.45.02l-12.97 62.6H49.74L36.78.02h10.74l7.6 36.67L62.72.02h10.73zM91.8 25.95h18.33V44.3a18.34 18.34 0 0 1-36.67 0V18.36a18.34 18.34 0 0 1 36.67 0H99.39a7.6 7.6 0 0 0-15.2 0v25.93a7.6 7.6 0 0 0 15.2 0v-7.6h-7.6V25.96z" transform="matrix(2 0 0 2 40 158)"/></g></defs><path id="c" d="M8.5 150h283v100c0 23.5-18 41.5-41.5 41.5H50c-23.5 0-41.5-18-41.5-41.5z"/><g stroke="#000" stroke-width="38.01"><g id="b" transform="translate(150 150)"><path id="a" fill="#ffb13b" d="M-84.15-15.85a22.42 22.42 0 1 0 0 31.7h168.3a22.42 22.42 0 1 0 0-31.7z"/><use transform="rotate(45)" xlink:href="#a"/><use transform="rotate(90)" xlink:href="#a"/><use transform="rotate(135)" xlink:href="#a"/></g></g><use xlink:href="#b"/><use opacity=".85" xlink:href="#c"/><use xlink:href="#d"/></svg>