<svg xmlns="http://www.w3.org/2000/svg" viewBox="0 0 1920 1080"><style>.st0{fill:none;stroke:#66f;stroke-width:3;}</style>
          <defs>
            <pattern id="grid" x="-20" y="-20" width="40" height="40" patternUnits="userSpaceOnUse">
              <rect width="100%" height="100%" fill="#33c" stroke="#66f" stroke-width="4"/>
            </pattern>
          </defs>
          <rect width="100%" height="100%" fill="url(#grid)"/><path d="M658 344l-40-33 29 43c-6 3-12-2-17-6l-39-37c19 24 36 49 50 77-25-22-50-43-74-66l49 75c-6-1-12-5-17-10l-29-24c12 21 27 41 43 59-2 3-6 2-9 0l-24-12c5 8 10 17 16 24l-28-2M564 490l-47-85c-9-17-19-34-24-52a111 111 0 01140-135c40 11 77 43 117 33M1090 254c38-8 63-44 95-65 26-17 58-26 89-21 31 4 60 22 77 48 21 34 20 77 11 115s-26 75-36 113c-7 29-11 59-10 89M1155 323l38-32c-8 19-18 36-29 54 27-28 57-53 90-72-27 43-53 88-76 134 15-9 27-23 38-36l63-73c-22 36-44 72-60 111l42-31-26 49c5-1 10-2 14-5l-5 11M891 327c7-17 14-34 10-52-2-9-7-17-12-25-22-31-55-57-92-63-38-7-81 10-98 44M821 269c2-44-22-88-59-111s-87-24-125-3c-14 7-26 17-35 30M1047 277c-23-2-46-4-69 0-23 3-46 13-60 31M1022 270c-25-12-49-28-69-47a94 94 0 01-31-51c-3-15 1-31 6-46 7-17 15-33 25-48 6-10 14-20 13-32-1-7-5-13-9-19-12-17-24-32-37-47M905 179c-60-40-137-56-208-42M888 144c-59-30-126-46-193-47M1063 225l-52-35c-9-5-17-11-25-18-31-28-43-70-52-111M917 122c1-49-26-98-68-123M890 114c-28-33-54-69-76-107M1096 237c-3-20 0-41 7-60 2-5 5-11 10-15 6-6 15-9 24-10 13-2 25-1 38 1M1064 192c2-18 7-35 9-53 3-17 3-36-4-52M1198 151c-27-29-49-61-66-97M1143 126l-26-68M890 373l-17 20c6 3 13 8 11 13-2 4-7 6-8 9-1 4 2 6 3 9 1 5-1 10-3 14-6 13-14 26-24 37 6 0 12 0 18 2 5 3 10 8 8 14-1 7-8 10-11 16l-2 8-7 70M678 523l8-9c6-7 13-14 21-17 10-4 21-2 30 1 6 2 12 4 16 8 11 7 18 19 22 32 4 12 5 26 6 39a1646 1646 0 00-16-18c-2 0-5 1-4 3 2 2 6-1 7-4s0-6-1-9l-10 7c-13 5-26 0-38-5-8-4-17-9-20-17s2-19 10-19c-6 11-19 18-31 17M1109 507c-15-10-30-19-48-22-17-4-38 0-49 14l-10 18c-9 17-23 35-19 54l27-18c-1 9-3 19 1 27-2-12 6-25 18-29 9-2 19 0 28-1 10-1 21-7 20-16l1-6 4-2 30-5M1017 520c3 14 17 24 30 24 4 0 8-1 11-3 6-3 10-10 11-17 1-6 0-13-1-20M729 501c-8 8-10 20-5 30s15 16 26 15c7 0 14-5 14-11M763 474c1-10-2-20-6-29 5 5 12 8 18 11l-8-19c4 2 7 4 9 7 2-5 2-10 2-14 5 0 10 2 13 6 1-5 2-11 1-17M1000 454l5-15 1-3-3-1h-12c3-2 4-7 1-10s-8-2-9 2l-1-9-5-1 3-16M759 338c3-9-5-18-12-24-32-24-79-27-114-7M720 390c1-13-5-25-14-35-8-9-19-16-30-23M736 353c-9-20-32-27-52-32M708 402c-2-5-5-11-10-15-5-3-12-5-17-2-7 3-10 10-12 17-12 35-22 71-40 104M688 368c-13 0-25 8-31 19-7 11-9 23-12 35-3 13-6 25-13 35M620 469c-15 21-32 41-50 58-11 10-22 19-30 30-11 16-17 35-21 54-7 35-6 72 2 106M552 637c-12 42-6 86-8 129-2 44-15 92-52 114M573 758c6 31 4 64-6 94-16 44-48 81-79 116M611 816c4 19-5 38-14 55-10 21-21 42-33 61M739 729c4 8 9 16 18 20 8 4 20 1 23-8l2-4c3-2 6 0 9 2 13 11 31 16 48 14 21-2 44-14 60-1 4 2 7 6 12 8 9 4 19-2 27-8l25-19c1 20-14 39-32 49-18 11-39 14-60 17-6 18-16 34-30 48-5-9-13-16-23-21-5-3-12-5-16-9-5-4-9-11-6-17-6-3-14 3-21 4-11 0-18-13-21-25l-12-43M800 758c11 6 21 15 28 26-8 2-17 4-26 3s-18-6-23-13M886 757c-12 5-22 15-27 27-1 2-1 6 1 7h2l22-6M844 859c-3 10 1 20 8 28 7 7 17 11 26 15l69 32c14 7 28 13 44 14s32-6 39-20c2 11-1 22-9 29h13M837 884c-28 29-65 49-104 57l-10 1c-8-2-13-12-10-20-6 4-15-2-14-9 0-3 2-6 1-9-1-5-11-6-13-12-1-6 7-13 2-18-2-3-7-1-11-3s-4-7-3-11 3-8 2-12l-2-7 2-12 5-21M911 835c2 2 6 2 9 0s6-4 9-4l5 3c8 3 16-3 24 0l7 3 9 1c18-1 36 10 53 4M763 845c-10-2-20-1-29 4l-5 2c-3 0-5-3-8-4-11-7-30 3-39-7M742 877c-2 5-9 2-14 3-4 1-6 5-10 7-3 2-9 2-10-2M963 598c7 33 24 63 47 87M1021 640c11 13 25 23 41 28 1-8 0-15-2-23l34 14v-30c10 2 14 18 24 16 4-1 6-4 9-8 4-6 7-13 9-19l4 14c2 4 9 6 13 3 3-1 4-4 5-7 6-19 5-40-3-58M1086 308c-13-2-25-4-38-2s-25 7-32 18M1080 329a65 65 0 00-31 56M1097 359c-12 20-29 37-50 47M1128 379c-10 25-15 53-14 80M1148 438c-3 14 0 28 5 40l17 38M1173 453l5 78c0 7 1 15 3 22 5 21 21 38 37 51M1237 546c2 19 0 39-6 57-6 15-15 29-18 45M1252 601l-11 103-2 13c-4 10-13 17-18 26-7 14-3 30 5 42 7 13 19 22 31 31M1172 750c3 13 10 24 15 36 4 12 7 26 1 37-5 11-18 23-12 34 3 5 9 7 13 11 13 11 10 31 6 48-11 46-16 94-16 142M1139 826l1 71-1 10c-3 6-9 9-10 15-2 9 7 17 11 25 6 10 3 23-1 33-4 11-11 21-13 32-1 10 0 20-4 29s-13 16-21 22c-17 10-37 19-57 15M740 956l-16 38c3-2 8-3 11-1-7 14-10 31-8 46l21-18c0 11 4 21 11 29l10-13c3 10 15 13 26 16 10 2 22 7 23 18l3-18c9 9 17 19 24 30l1-22 22 20 1-17c5 5 12 10 20 12l4-28c8 8 17 15 27 20 4-11 4-24 1-35 15 10 32 16 49 18-2-12-7-23-14-33l47 3c-4-5-6-11-6-17 3 2 7 3 11 2 2-13 0-27-4-39M1023 987l27 5c5 1 11 1 13-4 2-3 0-7 0-11s4-8 6-5c9-11 5-29-7-36 2-3 8 3 11 0l1-3c1-6-2-12-6-17 5 1 8-4 9-9 0-5-2-10-4-14 3 1 7-1 8-5 2-3 1-7-2-9l3-2M1018 891c7-1 14-2 21-5s12-9 13-16c2-7-1-15-8-17 4-2 8-3 11-6 3-2 5-7 3-10l-3-6c0-4 3-7 5-11 3-6 1-15-5-19 6-3 10-10 10-16 0-7-4-14-11-17-3-1-6-1-8-3-3-2-5-5-4-8l5-7c1-5-6-7-10-9-5-2-8-6-9-11M1169 666c-6 18-12 37-8 55 2 5 4 10 3 15-2 9-13 15-13 24 0 4 2 8 0 12-1 5-8 6-10 11-1 4 1 8 2 13 1 4-1 10-6 9M1312 555c28 36 39 84 32 128M1323 671c-2 29-4 58 3 87 6 29 21 57 46 72M1351 858c2 27 3 54-5 80a299 299 0 01-84 109M1371 263c25 15 46 40 75 47l15 5a112 112 0 0152 73c5 25-3 53-22 70M1525 383c-4-22-15-42-31-58M1537 383c2-12 1-24-4-35M1508 490c7-5 15-10 23-13M1495 566l-19 86c-2 10-5 22 2 30 3 5 8 8 13 9 8 4 17 5 25 4M1494 721c-2 25 13 48 20 72 2 6 3 13 2 20-1 8-5 15-10 22-12 19-30 35-36 57M1534 788c-2 17 0 33 6 49M1522 871c2 24 3 49-5 72-5 14-13 26-22 38-19 24-42 46-68 63M606 934c-3 18-13 34-27 46M631 959c3 21-12 40-25 56M665 977c0 25-9 50-25 69M685 1017c0 20 6 39 17 55M1402 330c21 3 41 14 54 31 12 18 16 41 9 61M1413 395c15 17 20 42 13 64M1512 513c-3 12-5 25-6 38M1525 519l30 19M1524 551c16 10 30 23 41 39M1523 595c14 9 28 21 40 34M1516 630c18 16 37 31 57 45M1511 669c20 11 37 26 51 43M1362 567l-4-69c-1-13 1-28 12-34M1382 780c1 10 7 17 12 26 11 21 8 47 6 71M1379 947c-5 32-8 64-9 96M1464 949c-20 27-47 50-77 65M1348 1006c-2 22-13 43-31 56M1536 963c0 10-6 20-12 29-14 19-29 38-46 55M629 529c1 17-4 35-15 49l-17 20a67 67 0 003 80M622 641a99 99 0 00-11 63M637 689c-8 13-8 31 0 45M650 734c0 19 2 37 7 56M653 753c17 23 16 57-3 79M741 516c-1 2 1 4 3 5l-2-8M1040 508l-6 6c-1 3 1 7 3 8 3 0 6-3 4-6-1-2-5-3-4-5M818 300c-5-7-8-16-6-24M883 442c-3 8 1 18 8 24l-19 4c8 0 13 8 13 16-1 8-5 15-10 21M957 494c-6-3-10-11-8-17M743 701c-5-20 0-42 14-58 7-8 16-15 17-26M962 688c-1-9-8-18-17-22M1551 412c4-18 13-36 27-50M1564 421c17-11 37-18 57-21M1578 437c25-3 51 1 76 9M1605 463c10-2 20 3 29 9 13 9 27 18 39 28M1684 525c10 15 30 20 48 21s36-1 54 4c17 6 33 21 31 39 5 2 7-6 10-11 4-6 13-6 18-2 6 3 9 10 11 17 4 13 6 27 11 40 6 13 18 24 32 25M1759 531c22-6 49 5 61 25M1831 568c15-5 33 3 39 17l6 21c3 12 14 22 26 26M8 155l26 35 7-34c3 9 7 17 14 23 6 6 18 7 24 0 4-5 4-12 6-19 2-6 11-12 15-7 3 2 3 6 4 10 4 10 19 10 27 4s11-18 13-28c8 17 18 35 36 38 13 3 27-6 32-18 7 12 5 29-5 38 23-2 41-18 60-31 18-13 40-26 62-20-8 8-16 17-21 27-2 4-4 8-2 12 3 5 12 3 17-1l31-17c3-2 7-4 11-4 4 1 7 4 10 6 21 14 49 1 69-13 11 19 39 24 56 11 1 9-2 19-7 27 23 5 49 1 68-13-4-8-5-18-3-27 8 10 25 12 35 5M1261 146c6-8 14-13 24-15 10 16 32 25 51 21 0-4-2-7-5-10l68 29c11 5 23 9 34 7 12-3 20-18 13-27 12 0 22 9 25 19l35-13 8-1c8 2 5 14 1 21 34 4 69 1 101-9 1 7 0 14-3 20 13 5 29 2 40-6 11-9 17-24 15-37 12-5 25-2 35 7 5 4 11 11 17 9 4-2 6-6 9-8 7-5 17 2 19 11 1 8-4 16-9 23-2 3-4 6-3 9 0 3 3 5 6 6 33 17 79 4 98-28 13 6 29 7 41 0M1465 291c16-1 31-15 33-32 8 1 13 8 19 13s16 9 22 3c7-7 1-20 8-27 12 5 25 10 38 12s27-1 37-11c2-2 5-5 9-5 6-1 8 7 13 11 5 5 14 4 20 1 7-3 13-8 20-9 8-2 15 1 23 3 13 3 27 5 40 6 15 1 33-3 35-18 2-9-3-21 5-24h9c10 2 19 6 28 10 7 5 15 10 24 12 8 2 19-2 21-11M475 282c0-16-12-29-23-40-5-5-10-10-16-11s-14 1-16 7c-2 8 6 17 1 23-2 3-5 4-8 5-13 3-27 6-38 0-11-5-18-18-30-19-12 0-19 11-29 16-17 7-35-2-49-13-13-11-28-23-44-21-10 2-18 8-28 9-11 0-20-8-30-11-8-4-18-4-27-5l-123-8M470 458c-33 3-66-3-98 0s-67 16-81 46h49c4 0 9 1 11 5 1 3-1 6-2 8a96 96 0 01-58 42c-12 3-26 4-34 13l-10 14c-14 16-40 14-61 7s-41-19-62-14c-18 3-31 16-47 24-18 9-40 11-60 6M480 560c-26-6-54-8-80-4-15 2-30 6-39 16s-8 28 5 33c-20-5-43 10-45 28-2 23 23 48 7 66-6 7-16 9-25 11-14 3-28 4-42 3-6 0-13 0-19 2-14 7-12 25-8 38s7 31-7 37c-10 5-26 2-32 10-8 11 10 29-2 37l-11 4c-6 4-4 13-6 19-3 6-10 10-16 14-46 23-96 37-148 43M1603 569c2 14 12 26 25 29 5 2 11 2 16 3 9 4 16 13 16 22 0 3 0 5 2 7 1 3 4 4 7 5 20 8 29 32 35 53l8 24M1622 738c19 12 26 37 30 59 3 11 5 23 5 35-1 12-5 23-9 34l-15 44M1698 934c3 10 7 20 12 28M1665 1013c8 9 18 17 29 24M1821 911l17 51M454 805c0-4-1-9-3-12s-7-4-10-2l-3 6c-4 10-14 18-21 27-8 8-14 20-9 31 4 10 18 19 13 28-3 5-8 7-13 9-16 6-28 20-32 37-1 4-2 8-1 12l8 11c7 10 5 24-1 35-6 10-17 17-27 24-5 3-11 6-13 12l-1 12c0 16-15 28-30 27M977 578l-10-8 10 14c-4 1-7 0-10-2l4 7-7-1c0 2 1 5 3 6M743 593c-1-2-3-3-5-3l-18-2c-2 0-5 0-7-2s-1-6 1-6l-16-4 6-6c-6-4-13-7-20-8 1-3 5-4 5-6 0-3-3-3-6-3-2 0-5 1-6-1l-1-4c0-1-2-3-3-2M1044 585c14 0 27 1 40 3l-19-12 17-2 2-1-1-2-7-7c4 2 9 1 13-2s7-7 11-8c3 0 8 1 9-2 1-2-1-4-2-6-2-1-4-2-5-5l10-2c3-1 5-7 2-9M849 827c-7-10-9-22-10-34-1 13 1 26 6 37M1059 746l17-1c2 0 4 0 4-2 1-2-1-3-2-3l-14-10 17-4-6-10h10l4-1c1-1 0-4-1-5-1-2-3-3-3-5 2-3 7 1 9-2l1-2c1-3 4-6 8-6M656 573c-2-1-5-1-6 2-1 2-1 5 1 6l3 2v3l-9 13c4 2 8 2 12 0-2 4-4 7-4 11s2 8 6 9l-2 11c1 4 3 8 7 9-3 2-3 8 0 11l7 8c3 5 3 11 7 13l3 2c2 2 2 5 0 7l-3 7c0 3 2 6 4 7s7 0 8-2M710 670c-4 30-12 60-22 88-3 9-7 17-8 26v5c1 1 4 2 5 0l-2 6M729 735c-3 7-4 15-5 24v13c-2 6-7 11-12 16M988 729c5 7 7 15 7 24M737 482l-3-4c-13-8-25-15-39-21M747 481c-7-13-16-25-27-35M1027 472c5-14 15-26 27-34M1047 470c11-12 27-15 43-17M847 182c-24-18-57-24-86-17s-53 26-73 47c-20 22-36 46-55 69M1025 263c-7-4-14-9-20-15-14-11-28-23-38-39a93 93 0 01-1-96M1042 252c-31 0-64-1-92-14-14-6-27-16-32-30M1044 191c0-6 3-12 6-18 9-24 10-51 0-76M1059 196c-2-7 2-13 7-18 15-17 37-26 59-24M1032 177l31-34c5-6 10-12 18-15 5-2 10-2 16-2 8-1 16-1 23 3s11 12 14 19l6 22M1035 197c-3-10-9-19-15-28-23-35-33-77-28-118M951 202l-15-34c-5-10-10-21-16-30-11-15-27-25-43-33-17-7-34-12-52-16M1314 581c8 10 13 22 15 35 2 12 0 25 1 37 0 27 9 53 24 76M1300 946c0 24-2 49-9 73-8 23-20 45-39 62M615 547c1 7-1 15-4 21M602 571c2 8-1 18-6 24M599 613c-6 11-7 24-4 36M621 680c-2 15-1 30 3 45M643 724c-1 14 0 29 2 43M790 939c14-14 32-23 52-26 22-3 47 3 64 18M833 950c-17 3-31 18-33 36M863 950c6-1 13-2 19 0 8 2 15 9 20 16M858 969c-1 12 0 23 3 34M1021 802c18 1 36-2 54-2s38 5 49 20M1034 823c15-1 29 1 44 5 5 1 11 3 16 6 12 7 19 19 25 31M1024 873c14 4 26 13 40 18 14 6 29 7 44 7M985 889c24 9 47 25 64 45M730 905c-6 1-11 5-16 8-8 7-17 14-22 23-4 10-5 21-12 29M722 897c-28 4-54 18-72 40M724 871c-34-1-68 9-97 27M710 851c-13 0-25 5-37 9-13 4-27 6-41 6M713 804l-46 9c-9 1-19 3-28 7s-17 10-23 18M1115 386c-15-2-27 13-34 26l-19 33M1108 411v36M1128 429c0 9 2 17 5 25M1156 459c-1 5 0 11 2 16M1196 511c-2 35 6 70 25 99M1247 541c19 40 12 91-17 124M609 464c-32 7-53 37-69 65M538 586c-8 34-10 70-6 104 6 60 30 121 11 178M562 813c7 50 15 102-5 149M596 927c5 26 2 54-7 80M627 980c10 25 6 55-11 77M1351 470c1-15 1-31 7-45 5-14 15-27 29-33M771 314c14-13 21-33 20-53M926 293c5-44-16-88-48-119s-75-48-118-58M859 264l-14-27c-4-7-8-14-14-19s-15-7-22-4M804 259a63 63 0 00-66-38M887 297c7-40-5-82-31-113M1056 289c-21-5-45 3-59 20M1087 288a81 81 0 00-49 60M1133 357c-16-3-31-7-47-6s-33 8-42 22M704 414c-16 11-30 24-42 40M643 461c-6 18-8 36-7 55 1 11 3 22 2 33-1 29-18 56-44 69M622 493c-9 19-27 33-42 49s-28 37-22 58M600 691c-4 17-2 36 6 53 7 16 19 31 22 49M1199 788c2 18 9 34 21 48l15 17c3 7 4 16-1 22-3 3-7 5-9 9s-1 8 0 12c3 25 0 50-11 73M1153 927c16 28 11 67-12 90M1090 1022c-28 13-51 35-66 62M1289 608c4 20 4 39 4 59 0 21 0 44-10 62l-16 26c-4 9-6 21-1 29M1391 599c-3 33 19 63 32 94 18 44 14 94 10 142M1408 500c-9 32-3 68 15 95 6 10 14 18 20 27 18 27 23 62 15 93M443 620l6 86-46-60c-4 33-1 67 9 99-20-20-39-42-55-65 7 21 15 42 25 62l-41-30 26 73c-19-6-37-17-52-31l42 67c-19-2-38-8-54-17l3 78-44-22c20 32 36 67 48 103-42 4-84-12-114-42-6 1-6 10-3 16l37 103c-38-19-76-40-112-62-1 9 5 19 8 28 4 9 5 21-3 27-4 3-9 4-13 4-16 2-33 3-49 3M1633 340l82 104c-8-33-14-68-16-103 25 40 41 84 57 128l3-104 53 64 8-79c21 16 13 53 34 69 5-30 8-60 9-90l27 73c2 6 7 13 12 10l3-6 11-30M4 293l53 210c11-62 26-124 46-184-4 82-35 168-3 243 12-4 15-18 17-30l38-238 8 98c2 30 7 64 31 81l59-149c1 27 4 53 10 80 17-22 31-46 41-72 7 7 5 19 4 29s4 23 14 22c3-1 6-4 9-7 11-12 20-25 26-40 1 11 3 24 12 32 9 7 27 3 27-8 13 11 27 21 43 29M1905 461c1 24 0 48-3 72-16-17-11-46-24-66-2-3-6-6-9-4l-10 54c-12-11-10-31-19-45l-4-4c-9-3-13 17-22 15-8-1-8-15-15-16-7 0-14 9-18 5M721 503c-6 4-8 13-6 20 1 7 6 13 12 17 12 7 27 8 38 2M1015 524c1 9 9 18 19 21a39 39 0 0036-8c4-4 6-10 7-16l-3-18M1010 523c-8 8-13 18-16 28M768 539l8 17M1080 502l11 2 16 6M714 503c-5-1-10 1-14 4M25 96c9 10 29 6 34-7l-4 32c30-22 67-34 104-32-1 17 13 34 30 35 12-9 0-32 10-44 10-13 30 0 43 10s40 13 40-3c3 19 24 30 44 29 19-1 36-12 52-22 2 15 23 21 38 15 15-5 27-17 41-24s36-4 41 11c25-17 56-24 86-19 6 1 14 2 19-2s1-15-5-12c16 34 64 48 96 28 5-14 26-13 37-4 12 9 19 23 32 30 16 9 37 3 51-8s23-29 32-45c13 17 27 35 48 41 21 5 48-11 44-32 19 5 31 27 25 46 29 6 62-8 78-34l51 38 50-19c15 19 44 39 59 19 8-11 4-29 16-36 11-6 23 4 34 11 32 23 82 17 109-13 1 21 20 37 40 41 20 5 40 1 60-2 30-6 64-15 77-42-3 24 33 40 50 23 4-4 6-10 11-14 12-11 30-7 46-8s35-14 28-29c14 15 28 29 46 36 18 8 42 5 54-10-5 13 2 29 14 35 13 6 30 2 37-10 2-4 4-8 8-11 11-8 23 9 32 18 14 14 38 14 52 1M18 22c2 9 16 9 22 3s7-17 7-27c2 18 10 35 23 48 10-16 42-20 43-1 3-24 34-31 57-25s44 21 67 21c24-1 44-16 67-21s54 9 50 32c31-25 76-30 112-13 13 7 25 16 40 17 14 1 31-13 25-26 20 17 53 14 70-6 9 24 49-1 70 14 5 3 9 9 13 14 13 12 35 10 49 0s23-27 28-44l43 24c19 11 39 22 61 22s46-12 50-34c10 24 43 25 68 23l27-3c32-4 66-8 88-31 4 36 50 58 81 39 7-5 14-12 23-13 10-2 20 4 30 8 16 6 36 6 48-6 13-12 9-37-8-40 17 22 47 35 75 32 8-1 15-3 23 0 10 3 15 13 23 21 11 12 28 18 44 17l34-50c35 19 85-8 89-48 35 11 64 41 75 77 25-3 48-20 59-43 8 25 36 42 61 39 19-3 34-15 52-19s42 5 42 24c16-16 37-26 59-28" class="st0"/></svg>
